<?xml version="1.0" encoding="utf-8"?>
<!-- Svg Vector Icons : http://www.onlinewebfonts.com/icon -->
<!DOCTYPE svg PUBLIC "-//W3C//DTD SVG 1.1//EN" "http://www.w3.org/Graphics/SVG/1.1/DTD/svg11.dtd">
<svg version="1.1" xmlns="http://www.w3.org/2000/svg" xmlns:xlink="http://www.w3.org/1999/xlink" x="0px" y="0px" viewBox="0 0 1000 1000" enable-background="new 0 0 1000 1000" xml:space="preserve">
<metadata> Svg Vector Icons : http://www.onlinewebfonts.com/icon </metadata>
<g><path d="M779.9,416.3c-10.7,0-20.8,1.8-30.6,5.1c-1-0.5-2.1-0.9-3.2-1.2c-18.4-29.4-49.7-47.5-84.9-47.5c-11.9,0-23.6,2-34.7,5.8c-18.2-30.7-50.2-49.5-86.3-49.5c-6.5,0-12.8,0.6-19,1.7v-55.6c0-58-44.5-103.4-101.2-103.4c-57.3,0-104,46.4-104,103.4v273.1l-16-16c-18.5-18.4-44.4-28.6-72.8-28.6c-28.6,0-56.3,10.7-74.2,28.6c-39,39-52,106.6-6.2,152.4l233.5,231.9c5.4,5.3,11.5,10.1,18.2,14.3c43.8,35.5,96,59,206.3,59c256.4,0,277.8-150.3,277.8-304.3v-166C882.4,461.7,838.3,416.3,779.9,416.3L779.9,416.3z M841.7,685.7c0,149.3-17.5,263.5-237.1,263.5c-99.5,0-143.2-19.4-181.6-50.7l-2.3-1.7c-4.5-2.7-8.5-5.8-11.9-9.2L175.4,655.8c-30.5-30.5-14.7-73.8,6.2-94.7c10.3-10.3,27.7-16.7,45.4-16.7c17.6,0,33.2,6,44,16.7l85.5,85.2V275c0-34.5,28.4-62.6,63.2-62.6c33.9,0,60.5,27.5,60.5,62.6v118.2l0.5-0.3v121.5c0,11.3,9.1,20.4,20.4,20.4c11.2,0,20.4-9.1,20.4-20.4V372.8c6-1.8,12.1-3.1,18.6-3.1c26.3,0,48.2,16.3,57.2,42.5l2.6,7.6v133.4c0,11.3,9.1,20.4,20.4,20.4c11.2,0,20.4-9.1,20.4-20.4V417c6.6-2.2,13.5-3.7,20.4-3.7c26.3,0,48.2,16.3,57.2,42.5l1.4,4v133.3c0,11.3,9.1,20.4,20.4,20.4s20.4-9.1,20.4-20.4V461c6.6-2.4,13.4-4,21.6-4c34,0,59.6,26.9,59.6,62.7L841.7,685.7L841.7,685.7z M252.6,466.9c3.6,2.7,7.9,4,12.1,4c6.2,0,12.4-2.8,16.4-8.2c6.7-9,4.9-21.8-4.2-28.5C222.3,393.6,191,331.3,191,263.4c0-117.3,95.4-212.7,212.7-212.7c117.3,0,212.7,95.4,212.7,212.7c0,14.2-1.4,28.5-4.2,42.4c-2.2,11,4.9,21.8,16,24c11,2.1,21.8-4.9,24-16c3.3-16.5,5-33.5,5-50.4C657.2,123.7,543.5,10,403.8,10S150.3,123.7,150.3,263.5C150.3,343.2,188.5,419.3,252.6,466.9L252.6,466.9z"/></g>
</svg>